<svg width="25" height="25" viewBox="0 0 25 25" fill="none" xmlns="http://www.w3.org/2000/svg">
<g clip-path="url(#clip0_206_157)">
<path d="M12.6 2.66225C15.8041 2.66225 16.1836 2.67444 17.449 2.73209C18.619 2.78553 19.2544 2.981 19.6773 3.14534C20.2374 3.36303 20.6371 3.62309 21.057 4.043C21.477 4.46291 21.737 4.86266 21.9547 5.42272C22.119 5.84562 22.3145 6.48106 22.3679 7.65097C22.4256 8.91641 22.4378 9.29591 22.4378 12.5C22.4378 15.7042 22.4256 16.0837 22.3679 17.349C22.3145 18.519 22.119 19.1544 21.9547 19.5773C21.737 20.1373 21.4769 20.5372 21.057 20.9571C20.6371 21.377 20.2374 21.6371 19.6773 21.8547C19.2544 22.019 18.619 22.2146 17.449 22.2679C16.1838 22.3257 15.8043 22.3378 12.6 22.3378C9.39566 22.3378 9.01616 22.3257 7.75101 22.2679C6.58101 22.2145 5.94566 22.019 5.52276 21.8547C4.96269 21.6371 4.56285 21.377 4.14294 20.9571C3.72304 20.5371 3.46297 20.1373 3.24538 19.5773C3.08104 19.1545 2.88547 18.519 2.83213 17.349C2.77438 16.0837 2.76219 15.7042 2.76219 12.5C2.76219 9.29591 2.77438 8.91641 2.83213 7.65106C2.88557 6.48106 3.08104 5.84562 3.24538 5.42272C3.46297 4.86266 3.72304 4.46291 4.14294 4.043C4.56294 3.623 4.96269 3.36303 5.52276 3.14534C5.94557 2.981 6.58101 2.78553 7.75101 2.73209C9.01635 2.67444 9.39585 2.66225 12.6 2.66225ZM12.6 0.5C9.34101 0.5 8.93235 0.513781 7.65247 0.572187C6.37513 0.6305 5.50279 0.833375 4.73957 1.13C3.95038 1.43666 3.28119 1.847 2.61407 2.51412C1.94694 3.18125 1.53669 3.85044 1.23004 4.63953C0.933318 5.40284 0.730537 6.27519 0.672224 7.55244C0.613818 8.83231 0.600037 9.24097 0.600037 12.5C0.600037 15.759 0.613818 16.1677 0.672224 17.4476C0.730537 18.7249 0.933318 19.5972 1.23004 20.3605C1.5366 21.1496 1.94694 21.8188 2.61407 22.486C3.28119 23.1531 3.95038 23.5633 4.73957 23.87C5.50288 24.1667 6.37513 24.3695 7.65238 24.4278C8.93235 24.4862 9.34101 24.5 12.6 24.5C15.8591 24.5 16.2677 24.4862 17.5476 24.4278C18.8249 24.3695 19.6972 24.1667 20.4604 23.87C21.2496 23.5634 21.9188 23.1531 22.5859 22.486C23.253 21.8188 23.6634 21.1497 23.97 20.3605C24.2667 19.5972 24.4695 18.7249 24.5278 17.4477C24.5863 16.1677 24.6 15.759 24.6 12.5C24.6 9.24097 24.5863 8.83231 24.5278 7.55244C24.4695 6.27519 24.2667 5.40284 23.97 4.63962C23.6634 3.85044 23.253 3.18125 22.5859 2.51412C21.9188 1.847 21.2496 1.43656 20.4605 1.13C19.6972 0.833375 18.8249 0.6305 17.5476 0.572187C16.2677 0.513781 15.8591 0.5 12.6 0.5ZM12.6 6.33781C9.19672 6.33781 6.43785 9.09688 6.43785 12.5C6.43785 15.9033 9.19672 18.6622 12.6 18.6622C16.0033 18.6622 18.7622 15.9033 18.7622 12.5C18.7622 9.09678 16.0033 6.33781 12.6 6.33781ZM12.6 16.5C10.3909 16.5 8.60001 14.7091 8.60001 12.5C8.60001 10.2909 10.3909 8.49997 12.6 8.49997C14.8092 8.49997 16.6001 10.2909 16.6001 12.5C16.6001 14.7091 14.8092 16.5 12.6 16.5ZM20.4456 6.09434C20.4456 6.88972 19.801 7.53434 19.0056 7.53434C18.2103 7.53434 17.5656 6.88972 17.5656 6.09434C17.5656 5.29906 18.2103 4.65434 19.0056 4.65434C19.801 4.65434 20.4456 5.29906 20.4456 6.09434Z" fill="white"/>
</g>
<defs>
<clipPath id="clip0_206_157">
<rect width="24" height="24" fill="white" transform="translate(0.600037 0.5)"/>
</clipPath>
</defs>
</svg>
