<svg width="881" height="276" viewBox="0 0 881 276" fill="none" xmlns="http://www.w3.org/2000/svg">
<path d="M40.3925 100.821L81.9607 231.332H83.5563L125.208 100.821H165.517L106.23 272.599H59.3712L0 100.821H40.3925Z" fill="#1A254E"/>
<path d="M334.561 186.71C334.561 205.442 331.006 221.378 323.896 234.519C316.842 247.66 307.213 257.697 295.008 264.63C282.86 271.508 269.2 274.947 254.028 274.947C238.744 274.947 225.028 271.48 212.88 264.547C200.731 257.613 191.13 247.576 184.076 234.435C177.022 221.295 173.495 205.386 173.495 186.71C173.495 167.977 177.022 152.041 184.076 138.9C191.13 125.76 200.731 115.751 212.88 108.873C225.028 101.939 238.744 98.4722 254.028 98.4722C269.2 98.4722 282.86 101.939 295.008 108.873C307.213 115.751 316.842 125.76 323.896 138.9C331.006 152.041 334.561 167.977 334.561 186.71ZM297.696 186.71C297.696 174.576 295.876 164.343 292.237 156.011C288.654 147.679 283.588 141.361 277.037 137.055C270.487 132.749 262.817 130.597 254.028 130.597C245.238 130.597 237.569 132.749 231.018 137.055C224.468 141.361 219.374 147.679 215.735 156.011C212.152 164.343 210.36 174.576 210.36 186.71C210.36 198.844 212.152 209.077 215.735 217.408C219.374 225.74 224.468 232.059 231.018 236.364C237.569 240.67 245.238 242.823 254.028 242.823C262.817 242.823 270.487 240.67 277.037 236.364C283.588 232.059 288.654 225.74 292.237 217.408C295.876 209.077 297.696 198.844 297.696 186.71Z" fill="#1A254E"/>
<path d="M397.858 100.821V272.599H361.496V100.821H397.858Z" fill="#1A254E"/>
<path d="M579.52 160.96H542.738C542.066 156.207 540.695 151.985 538.623 148.294C536.552 144.548 533.892 141.361 530.645 138.733C527.398 136.105 523.647 134.091 519.393 132.694C515.194 131.296 510.631 130.597 505.704 130.597C496.803 130.597 489.049 132.805 482.443 137.223C475.837 141.584 470.714 147.959 467.075 156.347C463.436 164.678 461.617 174.799 461.617 186.71C461.617 198.956 463.436 209.244 467.075 217.576C470.77 225.908 475.921 232.198 482.527 236.448C489.133 240.698 496.775 242.823 505.453 242.823C510.323 242.823 514.83 242.18 518.973 240.894C523.172 239.607 526.894 237.734 530.141 235.274C533.389 232.758 536.076 229.71 538.203 226.131C540.387 222.553 541.898 218.471 542.738 213.885L579.52 214.053C578.568 221.938 576.188 229.542 572.381 236.867C568.631 244.137 563.564 250.651 557.182 256.411C550.856 262.114 543.298 266.643 534.508 269.998C525.775 273.298 515.894 274.947 504.865 274.947C489.525 274.947 475.809 271.48 463.716 264.547C451.68 257.613 442.163 247.576 435.164 234.435C428.222 221.295 424.751 205.386 424.751 186.71C424.751 167.977 428.278 152.041 435.332 138.9C442.386 125.76 451.96 115.751 464.052 108.873C476.145 101.939 489.749 98.4722 504.865 98.4722C514.83 98.4722 524.067 99.8701 532.577 102.666C541.142 105.462 548.728 109.544 555.334 114.912C561.94 120.224 567.315 126.738 571.458 134.455C575.657 142.172 578.344 151.006 579.52 160.96Z" fill="#1A254E"/>
<path d="M605.594 272.599V100.821H721.481V130.764H641.956V171.696H715.519V201.64H641.956V242.655H721.817V272.599H605.594Z" fill="#1A254E"/>
<path d="M843.688 150.224C843.016 143.458 840.133 138.201 835.038 134.455C829.943 130.708 823.029 128.835 814.296 128.835C808.362 128.835 803.351 129.674 799.264 131.352C795.177 132.973 792.042 135.238 789.859 138.145C787.731 141.053 786.668 144.352 786.668 148.043C786.556 151.118 787.2 153.802 788.599 156.095C790.055 158.388 792.042 160.373 794.561 162.05C797.081 163.672 799.992 165.098 803.295 166.328C806.598 167.502 810.125 168.509 813.876 169.347L829.328 173.038C836.829 174.715 843.716 176.952 849.986 179.748C856.256 182.544 861.686 185.983 866.277 190.065C870.868 194.147 874.423 198.956 876.942 204.491C879.517 210.027 880.833 216.374 880.889 223.531C880.833 234.044 878.146 243.158 872.827 250.875C867.565 258.535 859.951 264.491 849.986 268.74C840.077 272.934 828.124 275.031 814.128 275.031C800.244 275.031 788.151 272.906 777.85 268.656C767.605 264.407 759.599 258.116 753.833 249.784C748.123 241.397 745.128 231.024 744.848 218.666H780.034C780.425 224.426 782.077 229.235 784.988 233.093C787.955 236.895 791.902 239.775 796.829 241.732C801.811 243.633 807.438 244.584 813.708 244.584C819.866 244.584 825.213 243.689 829.747 241.9C834.338 240.111 837.893 237.622 840.412 234.435C842.932 231.248 844.191 227.585 844.191 223.447C844.191 219.589 843.044 216.346 840.748 213.718C838.509 211.09 835.206 208.853 830.839 207.008C826.528 205.162 821.238 203.485 814.968 201.975L796.241 197.278C781.741 193.755 770.292 188.247 761.895 180.754C753.497 173.262 749.326 163.168 749.382 150.475C749.326 140.075 752.098 130.988 757.696 123.216C763.35 115.443 771.104 109.376 780.957 105.014C790.811 100.653 802.007 98.4722 814.548 98.4722C827.312 98.4722 838.453 100.653 847.97 105.014C857.544 109.376 864.99 115.443 870.308 123.216C875.626 130.988 878.37 139.991 878.538 150.224H843.688Z" fill="#1A254E"/>
<path d="M37.3125 63.9001V0.89268H79.5079V11.8759H50.5521V26.8894H77.337V37.8726H50.5521V52.9169H79.6302V63.9001H37.3125Z" fill="#1041FA"/>
<path d="M133.085 63.9001V0.89268H146.325V52.9169H173.171V63.9001H133.085Z" fill="#1041FA"/>
<path d="M224.99 63.9001V0.89268H267.186V11.8759H238.23V26.8894H265.015V37.8726H238.23V52.9169H267.308V63.9001H224.99Z" fill="#1041FA"/>
<path d="M332.077 0.89268L347.212 48.7636H347.793L362.959 0.89268H377.635L356.049 63.9001H338.987L317.369 0.89268H332.077Z" fill="#1041FA"/>
<path d="M430.693 63.9001H416.506L438.123 0.89268H455.185L476.772 63.9001H462.584L446.899 15.2909H446.409L430.693 63.9001ZM429.806 39.134H463.318V49.5327H429.806V39.134Z" fill="#1041FA"/>
<path d="M517.324 11.8759V0.89268H568.753V11.8759H549.582V63.9001H536.495V11.8759H517.324Z" fill="#1041FA"/>
<path d="M633.514 0.89268V63.9001H620.275V0.89268H633.514Z" fill="#1041FA"/>
<path d="M739.836 0.89268V63.9001H728.4L701.157 24.2436H700.698V63.9001H687.459V0.89268H699.078L726.107 40.5185H726.658V0.89268H739.836Z" fill="#1041FA"/>
<path d="M835.349 21.2593C834.921 19.7621 834.32 18.4392 833.545 17.2906C832.77 16.1215 831.823 15.137 830.701 14.3371C829.601 13.5167 828.337 12.8912 826.91 12.4605C825.503 12.0297 823.944 11.8144 822.232 11.8144C819.031 11.8144 816.218 12.6143 813.793 14.2141C811.387 15.8139 809.512 18.1418 808.167 21.1978C806.821 24.2333 806.149 27.9457 806.149 32.3349C806.149 36.7241 806.811 40.4569 808.136 43.5335C809.461 46.61 811.336 48.9584 813.762 50.5787C816.188 52.1785 819.052 52.9784 822.354 52.9784C825.351 52.9784 827.909 52.4452 830.029 51.3786C832.169 50.2916 833.8 48.7636 834.921 46.7946C836.062 44.8256 836.633 42.4977 836.633 39.8109L839.324 40.2108H823.18V30.1813H849.384V38.1188C849.384 43.6565 848.222 48.4149 845.898 52.3939C843.574 56.3524 840.374 59.4084 836.297 61.562C832.22 63.695 827.552 64.7616 822.293 64.7616C816.422 64.7616 811.265 63.4592 806.821 60.8544C802.377 58.229 798.912 54.5064 796.425 49.6865C793.959 44.8461 792.725 39.1032 792.725 32.4579C792.725 27.3509 793.459 22.7976 794.927 18.7981C796.415 14.7781 798.494 11.3734 801.165 8.58402C803.835 5.79463 806.944 3.67181 810.49 2.21559C814.037 0.759362 817.88 0.03125 822.018 0.03125C825.565 0.03125 828.867 0.554261 831.924 1.60028C834.982 2.6258 837.693 4.08202 840.058 5.96896C842.443 7.8559 844.389 10.1018 845.898 12.7066C847.406 15.2909 848.375 18.1418 848.803 21.2593H835.349Z" fill="#1041FA"/>
</svg>
