<svg width="22" height="25" viewBox="0 0 22 25" fill="none" xmlns="http://www.w3.org/2000/svg">
<path d="M15.0213 8.18398C16.5539 9.28829 18.4307 9.9381 20.4577 9.9381V6.84181C19.3262 6.59878 18.3246 6.00254 17.5714 5.17322C16.2823 4.36205 15.3534 3.02382 15.0811 1.45752H12.2393V17.1687C12.2328 19.0003 10.7587 20.4834 8.94085 20.4834C7.86961 20.4834 6.91793 19.9685 6.3152 19.1709C5.23892 18.6231 4.50084 17.4986 4.50084 16.1999C4.50084 14.3632 5.9774 12.8741 7.79917 12.8741C8.14821 12.8741 8.48463 12.9289 8.80021 13.0299V9.89973C4.888 9.98123 1.74164 13.2045 1.74164 17.1688C1.74164 19.1477 2.52515 20.9417 3.79681 22.2524C4.94403 23.0292 6.32506 23.4822 7.81089 23.4822C11.7931 23.4822 15.0214 20.2269 15.0214 16.2114L15.0213 8.18398Z" fill="white"/>
</svg>
