<svg width="35" height="25" viewBox="0 0 35 25" fill="none" xmlns="http://www.w3.org/2000/svg">
<g clip-path="url(#clip0_206_153)">
<path d="M33.8128 4.24333C33.6171 3.51981 33.2352 2.86019 32.7052 2.33017C32.1752 1.80015 31.5156 1.41822 30.792 1.2224C28.1432 0.5 17.4827 0.5 17.4827 0.5C17.4827 0.5 6.82164 0.521867 4.17284 1.24427C3.44931 1.44009 2.7897 1.82205 2.2597 2.35209C1.7297 2.88214 1.3478 3.54178 1.15204 4.26533C0.350842 8.97173 0.0400418 16.1432 1.17404 20.6613C1.36983 21.3849 1.75173 22.0445 2.28173 22.5745C2.81173 23.1045 3.47132 23.4865 4.19484 23.6823C6.84364 24.4047 17.5044 24.4047 17.5044 24.4047C17.5044 24.4047 28.1651 24.4047 30.8138 23.6823C31.5373 23.4865 32.1969 23.1045 32.727 22.5745C33.257 22.0445 33.6389 21.3849 33.8347 20.6613C34.6798 15.9483 34.9402 8.7812 33.8128 4.24333Z" fill="white"/>
<path d="M14.0895 17.5749L22.9332 12.4525L14.0895 7.33008V17.5749Z" fill="#0D2D84"/>
</g>
<defs>
<clipPath id="clip0_206_153">
<rect width="34.2" height="24" fill="white" transform="translate(0.400024 0.5)"/>
</clipPath>
</defs>
</svg>
