<svg width="150" height="153" viewBox="0 0 150 153" fill="none" xmlns="http://www.w3.org/2000/svg">
<g clip-path="url(#clip0_196_40)">
<path d="M104.15 98.9867L103.787 99.2153C103.26 99.2063 100.062 96.4003 99.4614 95.852C98.8682 95.3096 97.0488 93.1207 96.4482 93.0833C95.8008 93.0445 95.5386 93.8767 95.8813 94.4206C96.4409 95.3096 99.3618 97.37 99.5801 98.1216C99.7603 98.7417 99.4468 100.01 99.4585 100.787C99.4746 101.89 99.7295 103.251 99.7632 104.36C99.7852 105.078 99.9771 106.764 99.3574 107.097C97.8794 107.892 94.0532 108.818 92.3159 109.178C81.9243 111.331 66.1421 110.309 55.9922 107.021C55.541 106.874 54.4336 106.647 54.3457 106.16C54.2227 105.477 54.3164 103.804 54.3472 103.024C54.5435 98.1574 55.4971 93.2552 56.9546 88.6413L56.8257 88.0944C55.916 87.3727 55.6304 88.1452 55.3008 88.9057C54.2681 91.2904 53.9268 94.2458 53.4331 96.7873L49.9512 98.3158C50.3613 93.3523 49.5015 87.8538 45.2651 84.7938C49.4912 82.0895 54.1685 80.0828 59.0757 79.0653C59.7949 79.7347 60.4717 80.4324 61.2437 81.0435C61.6465 81.3618 63.5903 82.5511 63.6753 82.6707C63.8657 82.9411 64.2437 84.6728 64.5425 85.2974C67.4297 91.3367 76.0298 91.4712 81.1377 88.5172C82.4766 87.7433 84.2695 86.0086 85.4385 85.4333C86.2515 85.0329 87.9316 84.758 88.9497 84.383C91.5073 83.4372 94.6802 81.7398 96.7471 79.9349C97.6289 79.1654 98.3364 78.124 99.2124 77.4277C104.391 78.9503 108.817 82.0536 112.644 85.8427C112.698 86.1655 112.579 86.016 112.441 86.0773C109.318 87.4803 106.885 89.4122 105.363 92.6067C104.978 93.4135 104.149 95.6279 104.149 96.4481V98.9882L104.15 98.9867Z" fill="white"/>
<path d="M66.1377 58.4211C62.4697 58.817 59.9927 61.7082 58.667 64.9923C56.5371 62.6316 56.8945 58.6258 57.6416 55.7316C58.3154 53.1244 59.6689 50.656 60.4556 48.1429C61.0488 46.2498 61.355 44.0863 61.8896 42.135C62.5752 39.6323 63.4131 37.1699 64.1938 34.7001C64.3125 34.5567 66.0732 34.3774 66.4233 34.3595C78.2827 33.7259 90.8716 36.7844 101.814 41.1668L101.903 41.3027C101.353 45.2144 100.591 50.5963 102.738 54.106C103.066 54.6424 103.803 55.1519 103.687 55.7705C103.614 56.1605 101.854 58.6915 101.486 59.2145C98.9663 62.7915 95.9092 65.9979 91.9175 67.8327C91.689 66.6299 91.6392 65.3733 91.2261 64.2064C89.7627 60.0721 84.769 59.3026 81.0176 59.0053C81.0601 57.8757 80.4814 56.7731 79.2949 56.6715C78.1787 56.5758 79.1177 57.7203 79.103 58.0341C78.9976 60.3934 72.564 60.1857 70.9658 58.4271C68.6103 55.8347 71.9839 53.1797 74.3364 52.4401C75.2241 52.1606 77.1445 52.2787 76.73 50.9056C76.4883 50.1047 75.397 50.4573 74.852 50.5769C71.6367 51.2791 67.314 54.6036 68.8462 58.4211C67.9746 58.4883 66.9917 58.3285 66.1362 58.4211H66.1377ZM69.1084 36.0508C67.7358 36.2047 65.4272 37.1834 64.6245 38.3503C64.3154 38.8 63.7998 39.7892 64.147 40.2822C64.6538 40.9277 66.7939 39.8624 67.5527 39.6935C68.8843 39.3962 69.6899 39.3977 71.0215 39.6935C72.0205 39.9162 74.0303 41.231 74.3818 39.6383C74.6323 38.5057 74.2808 37.8871 73.4575 37.2088C72.2812 36.2376 70.5923 35.885 69.1069 36.0508H69.1084ZM88.1528 38.5938C86.6265 38.7433 84.8979 39.5202 84.8364 41.2803C85.0693 42.1843 87.4731 41.7749 88.2539 41.8391C89.685 41.9572 90.8042 42.4697 91.9775 43.2705C92.8696 43.8786 95.8506 47.2434 95.9311 44.288C95.9883 42.1962 93.0425 39.568 91.2261 38.9569C90.2651 38.6342 89.1562 38.4967 88.1528 38.5938ZM67.9307 44.5614C66.7808 44.7497 65.4243 46.3215 64.9673 47.3645C63.8804 49.8432 64.3227 54.3466 67.9438 53.3888C71.5649 52.4311 72.564 43.8054 67.9321 44.5614H67.9307ZM86.9751 46.8042C84.0498 46.9879 82.5293 51.9858 83.7305 54.372C85.2671 57.4245 88.5644 55.0907 89.4258 52.7404C90.2065 50.6142 90.0117 46.6129 86.9736 46.8027L86.9751 46.8042Z" fill="white"/>
<path d="M59.9136 33.4689C59.3218 32.7652 62.7188 26.2597 63.3677 25.2646C63.5991 24.909 64.1206 23.9722 64.3989 23.7765C64.7739 23.512 65.8315 23.3312 66.3311 23.2072C72.7881 21.604 80.3789 22.2838 86.8975 23.3536C98.1958 25.2078 111.022 29.1823 118.805 38.1725C119.325 38.7731 120.261 39.7697 120.28 40.5661C120.306 41.6927 119.978 43.6874 119.785 44.8558C119.604 45.942 119.263 47.9158 118.917 48.9019C118.816 49.1918 118.623 49.2396 118.362 49.0842C111.563 42.8462 102.981 39.2304 94.3052 36.5678C83.3174 33.1955 71.3159 31.413 59.9165 33.4689H59.9136ZM77.9282 26.7453C78.3486 23.255 74.6968 23.4806 73.5088 26.3449C72.8467 27.9421 71.9795 30.8796 74.48 31.0828C76.9629 31.286 77.4316 29.6559 77.6367 27.4924L75.4307 27.4072L75 28.6877L75.8774 28.7624C75.6636 29.6873 74.3687 30.0832 74.4097 28.9208C74.4404 28.0616 75.0938 25.0554 76.4004 25.9923L76.4692 26.5914L77.9282 26.7453ZM67.6377 24.3905C65.1108 24.8149 62.0288 31.785 66.4219 31.0679C67.5234 30.8886 68.2163 29.7904 68.625 28.8341C69.2637 27.3415 70.4678 23.9154 67.6362 24.3905H67.6377ZM68.8477 30.9289H71.7041L72.2168 29.2868C71.9575 29.0567 70.6831 29.7695 70.7534 29.2151C70.8428 28.5159 72.397 24.531 72.2168 24.3562L70.8413 24.3457L68.8477 30.9289ZM82.6172 25.1018L80.2969 24.8283L77.3438 31.0768L78.8569 31.2128C79.4502 30.2849 79.3682 30.3208 80.48 30.4986C80.6602 30.527 80.8272 30.6017 81.0044 30.6346V31.4504L82.6172 31.8254V25.1018ZM87.457 31.2218L88.6099 26.0849C88.5337 25.7741 87.2915 25.7637 86.9605 25.689L85.2539 32.423L88.6172 33.0192L89.0625 31.3801L87.457 31.2233V31.2218ZM92.1021 26.6303C90.2388 26.9276 89.4331 30.1161 89.6616 31.7372C89.9004 33.4271 91.7432 34.1503 93.23 33.9082C94.7168 33.6662 95.6484 30.3746 95.4976 29.0762C95.3115 27.4759 93.6138 26.3897 92.1021 26.6303ZM97.8516 28.2395L96.2402 27.6418V34.8884L98.2471 35.6877L98.5078 35.5667L101.66 29.5872L100.044 29.0508C99.7441 29.239 98.6836 32.0645 98.2661 32.6248C98.1387 32.7951 98.1138 32.9296 97.8501 32.8728V28.2409L97.8516 28.2395ZM105.467 32.8713L105.847 31.3712L102.542 29.883L100.699 36.6081L104.004 37.9529L104.31 36.5543L102.75 35.7116L102.835 34.8152L104.583 35.2574L104.896 33.8589L103.425 33.3136L103.715 32.1257L105.469 32.8728L105.467 32.8713ZM109.422 40.6408C109.614 39.822 108.611 37.8617 109.129 37.276C109.469 36.892 109.973 37.0444 110.335 36.1166C111.376 33.4406 108.454 32.686 106.642 31.8254L104.77 38.3309L106.276 39.1422L107.153 36.91C107.514 36.91 107.774 39.4664 107.84 39.8669L109.422 40.6423V40.6408Z" fill="white"/>
<path d="M137.66 123.979L116.458 127.746L114.91 102.492L133.603 100.025L137.66 123.979ZM121.274 115.662L121.44 120.648C121.551 121.25 122.043 121.194 122.53 121.175C125.111 121.066 128.205 119.99 130.844 119.79C131.161 119.661 131.408 119.37 131.41 119.01L130.674 114.398C130.834 113.9 133.693 113.745 133.269 111.868C133.151 111.351 131.647 108.901 131.246 108.403C128.065 104.469 122.468 105.413 119.999 109.625C119.454 110.553 118.179 113.535 118.361 114.522C118.542 115.508 120.511 115.364 121.273 115.662H121.274Z" fill="white"/>
<path d="M28.27 85.7634C28.2832 86.6823 29.5459 90.6717 30.8291 89.194C31.4561 88.4723 30.2871 87.7297 30.022 86.893C29.9019 86.512 29.6909 85.49 29.7612 85.1284C29.8784 84.5143 30.5142 84.353 30.8408 83.9779C31.3037 83.4445 32.5386 81.6172 32.354 80.9404C31.2114 79.4432 30.6548 81.7248 30.0264 82.5495C29.0654 83.8091 27.1084 85.2315 25.853 83.5267C24.5977 81.8219 26.2866 79.0876 27.3911 77.7683C31.0693 73.3695 35.6704 77.0511 36.0352 81.8085C36.0732 82.3045 36.0703 82.9574 36.0439 83.455C35.9927 84.3799 35.4551 85.9009 35.4712 86.5912C35.4756 86.7735 35.5942 87.0932 35.7437 87.1859C37.2979 88.1391 37.4443 84.217 37.6772 83.4774C37.7285 83.316 37.8355 83.1935 38.0142 83.2204C42.5215 85.6006 46.5791 86.2221 47.978 91.8894C48.3442 93.3716 48.6958 97.5806 47.8887 98.8237C47.3716 99.6201 43.9175 99.7172 42.9976 99.6589C39.1406 99.4139 35.6982 97.8749 32.6221 95.5994C32.2075 95.2916 30.3691 93.6077 30.2197 93.5629C29.8008 93.4359 28.4385 93.772 27.8159 93.7451C27.2271 93.7197 25.3975 93.4284 25.5132 92.6021L27.8701 86.1743L28.2729 85.7664L28.27 85.7634Z" fill="white"/>
<path d="M132.568 23.0098C132.297 23.8226 132.565 24.3247 133.251 24.7774C134.06 25.3108 136.948 26.161 138.022 26.4852C138.696 26.6884 140.074 27.2173 140.692 27.1979C141.727 27.1665 142.091 26.149 142.184 26.1341C142.326 26.1117 144.072 26.7078 144.274 26.8289C145.392 27.5012 147.045 31.1947 147.923 32.3841C148.02 32.7292 147.895 32.8831 147.649 33.0878C147.382 33.3089 144.246 35.0571 144.042 35.0765C143.259 35.1497 142.349 32.3587 141.942 32.6426L138.422 42.6503L138.028 42.8535L126.627 39.0031L126 38.4428L129.051 28.2393C128.263 28.0929 126.208 29.5362 125.638 29.1478C125.451 29.0193 123.877 25.4662 123.848 25.1151C123.819 24.7639 124.049 24.5607 124.326 24.3889C124.676 24.1708 129.293 22.327 129.602 22.2897C130.462 22.1866 131.66 23.0143 132.567 23.0098H132.568ZM133.994 28.2737C133.173 28.444 132.324 29.3599 132 30.1249C130.793 32.9728 133.756 35.6353 136.481 34.5461C139.844 33.1999 138.142 27.416 133.995 28.2752L133.994 28.2737Z" fill="white"/>
<path d="M131.801 94.3941C132.04 94.152 132.037 93.4169 131.739 93.2227C131.06 92.7804 128.325 93.4826 128.051 91.9287C127.811 90.5616 129.819 90.4585 130.74 90.3972C132.107 90.3061 135.659 89.9355 135.296 92.1917C135.01 93.9667 132.587 95.3981 131.101 95.9943C128.121 97.1881 124.929 97.4899 121.833 96.5456C121.437 96.8803 118.781 100.112 118.361 99.6594C118.018 96.9505 117.609 94.2596 117.768 91.5104C118.165 84.6239 120.541 82.2811 125.389 78.0676C126.215 77.3489 127.068 76.5839 128.169 77.328C129.242 78.0511 128.864 79.7545 128.238 80.6749C127.841 81.2591 126.369 82.1421 126.292 82.435C126.196 82.7861 126.495 83.2747 126.814 83.3509C127.018 83.3987 130.2 82.2572 130.811 82.1018C133.041 81.5325 138.009 80.63 140.106 81.2904C141.306 81.6685 141.951 83.0476 140.678 83.8006C139.317 84.6044 135.795 84.1682 134.109 84.2728C132.675 84.3624 129.287 84.8331 128.029 85.3919C126.234 86.1882 126.653 87.9752 125.177 89.2064C124.556 89.7249 122.889 90.191 122.889 90.9202C122.889 92.6713 126.504 90.463 126.932 89.6532C127.447 90.0685 126.7 90.7185 126.601 91.2549C126.097 93.9832 129.082 94.8154 131.181 94.5823C131.37 94.5614 131.669 94.533 131.802 94.3971L131.801 94.3941Z" fill="white"/>
<path d="M35.4111 118.073C39.4878 117.425 44.209 121.88 47.023 124.535C50.2485 127.577 53.1021 131.042 55.793 134.574C55.96 134.786 55.9321 134.945 55.8633 135.187C55.6567 135.922 53.4097 138.625 52.7373 138.292C51.3413 136.696 49.8735 135.108 48.3413 133.649C44.4668 129.963 39.5054 125.342 35.2896 122.159C34.8164 121.802 33.1772 120.918 32.9604 120.652C32.0068 119.477 34.5293 118.213 35.4111 118.074V118.073Z" fill="white"/>
<path d="M96.3867 132.678C99.7632 129.363 101.483 124.776 101.221 119.98C101.42 119.763 104.397 121.238 104.729 121.554C104.975 121.789 105.202 122.581 105.281 122.934C106.119 126.736 104.922 136.272 101.729 138.801C100.611 139.687 98.8872 139.784 97.4912 139.858C96.2256 139.923 92.0742 139.932 91.1821 139.109C90.5435 138.519 90.7471 136.964 91.1968 136.276C92.1197 134.863 94.8999 134.317 96.46 134.323C97.4546 134.326 98.8784 134.905 99.7134 134.876C100.254 134.857 100.626 134.38 100.463 133.832C100.242 133.083 97.1397 132.916 96.3867 132.68V132.678Z" fill="white"/>
<path d="M66.0249 63.9836C68.0083 63.5727 71.4287 65.1505 73.749 65.3014C77.0068 65.5121 79.1396 64.7934 82.1074 64.5499C85.9116 64.2391 87.6489 66.9151 86.6426 70.5204C83.7817 80.7643 62.4346 78.9623 63.5771 67.6128C63.7119 66.2801 64.6069 64.2779 66.0249 63.9836ZM84.3369 66.8254C83.5224 65.9289 79.1777 67.1467 77.855 67.2348C75.4145 67.3962 72.8408 67.2333 70.4575 66.7149C69.6606 66.5415 67.5659 65.7437 67.0107 65.7616C65.0683 65.8199 66.4951 70.1051 67.144 71.1405C70.3931 76.3267 79.2847 76.636 83.1313 72.0191C83.9473 71.0389 85.3081 67.8937 84.3369 66.8254Z" fill="white"/>
<path d="M85.5161 11.9964C91.9937 11.6214 100.919 13.3097 104.736 19.2071C112.73 17.9715 119.632 25.49 120.123 33.2371C120.157 33.7765 120.198 36.1103 120.041 36.4525C119.739 37.1129 118.789 36.1193 118.682 35.7517C118.507 35.1526 118.6 33.5494 118.503 32.7963C117.765 26.9811 112.979 20.7939 106.859 20.6475C105.983 20.6265 104.703 21.0882 103.9 20.646C103.313 20.3217 102.999 19.5433 102.541 19.0443C95.4038 11.2762 79.812 12.4506 71.8726 18.5497C70.563 19.5553 69.8189 20.9508 68.1475 21.1794C67.1309 21.3183 67.377 20.8611 67.8194 20.2426C71.3526 15.3104 79.7256 12.3296 85.5147 11.9949L85.5161 11.9964Z" fill="white"/>
<path d="M106.661 65.9124C105.592 69.7509 103.995 73.2905 101.631 76.4685L100.187 76.1129C100.119 75.7125 101.168 74.3962 101.429 73.9464C104.493 68.693 106.166 62.9182 106.349 56.7773C107.414 57.1807 110.285 57.7066 110.953 56.6129C111.621 55.5192 109.646 54.805 109.89 53.5992C110.098 52.5668 110.955 52.9762 111.62 53.2675C114.895 54.6989 115.187 58.1922 114.037 61.2567C112.863 64.3794 109.947 66.2113 106.663 65.9124H106.661Z" fill="white"/>
<path d="M114.842 127.6C114.338 127.479 113.821 127.417 113.316 127.29C109.415 126.313 112.901 126.322 113.36 124.268C112.507 122.801 110.725 125.538 110.082 125.503C109.838 125.276 109.771 124.836 109.734 124.519C109.424 121.847 109.915 118.176 110.016 115.429C110.175 111.122 110.269 106.818 110.61 102.513L113.241 102.415L113.379 102.722L114.842 127.6Z" fill="white"/>
<path d="M30.5859 14.5381C35.2368 14.178 39.6284 16.8674 41.6572 21.0854C42.019 21.8369 42.9243 23.8331 42.4644 24.5638C42.1831 25.0105 40.3857 25.2675 39.9917 24.876C39.7822 24.6668 39.4028 22.9471 39.1787 22.4182C35.6455 14.0883 23.1782 16.3714 22.6992 25.4692C22.6084 27.1905 23.5913 28.6443 21.2446 29.0716C20.3115 29.2419 20.0303 28.9446 19.9219 28.0152C19.1147 21.1003 23.7202 15.07 30.5859 14.5381Z" fill="white"/>
<path d="M93.8965 131.634C94.2114 133.319 92.8579 133.064 91.645 132.959C89.0859 132.738 85.4048 131.308 83.2734 129.844C79.7944 127.455 77.7041 122.915 76.4502 118.948L73.3359 118.215L66.208 125.128L57.7178 134.547L57.4248 134.619C56.959 133.344 57.1245 133.137 57.8672 132.158C59.3364 130.22 61.3887 128.049 63.0615 126.25C65.8154 123.286 68.7978 120.543 71.6323 117.66C70.5557 117.529 68.7554 116.292 70.2407 115.406L77.4243 117.581C78.5039 120.153 79.3813 122.842 80.9473 125.194C83.8931 129.618 88.8823 131.132 93.8994 131.631L93.8965 131.634Z" fill="white"/>
<path d="M118.797 70.3726C119.067 73.6074 117.904 77.029 115.506 79.1925C114.07 80.488 112.723 81.232 111.923 78.8324L111.623 78.7413C111.057 79.8216 109.808 82.0792 108.702 80.2877C109.835 78.9251 110.832 77.5012 111.47 75.8203L111.833 75.7441C112.57 75.8188 113.026 78.2199 113.596 78.7353C115.838 77.174 117.369 74.1154 117.343 71.3423C117.337 70.7506 116.832 69.0443 117.246 68.7156C117.672 68.375 118.148 68.7171 118.579 68.7276C120.74 68.7799 122.874 68.6051 124.509 67.0078C124.567 66.7105 124.444 66.8255 124.323 66.7523C118.859 63.5115 117.546 58.4195 117.327 52.2233C117.299 51.4344 117.205 49.994 118.349 50.8816C119.051 51.4254 119.206 56.0065 119.451 57.2272C120.107 60.4993 121.633 63.3397 124.465 65.1117C125.958 66.0456 127.664 66.1965 125.465 68.2823C123.749 69.9109 121.085 70.4817 118.796 70.3696L118.797 70.3726Z" fill="white"/>
<path d="M112.5 100.853C112.28 100.999 110.48 100.931 110.086 101.007C109.646 101.091 109.638 101.552 109.062 101.614C107.275 101.802 105.741 100.415 105.507 98.6491C104.943 94.3923 109.172 88.6563 113.231 87.5566C112.062 91.8583 111.394 96.4557 112.5 100.853Z" fill="white"/>
<path d="M24.5742 68.6947C24.4102 68.8606 23.6396 68.9697 23.4609 68.8546C20.209 62.7316 24.6973 55.3043 31.5659 55.7331C38.5884 56.1709 41.7627 65.185 36.9902 70.3771C36.4292 70.9882 34.2173 72.5362 33.457 72.6154C32.7041 72.6931 32.2119 71.7159 32.7319 71.2617C32.9707 71.0525 33.8394 70.788 34.2305 70.549C41.606 66.0307 36.457 54.7948 28.4224 57.7517C25.0957 58.9754 23.3745 62.5777 24.0923 66.0456C24.23 66.712 25.0181 68.245 24.5742 68.6947Z" fill="white"/>
<path d="M50.3906 138.207C47.5239 137.41 44.8242 135.474 42.4336 133.699C39.5317 131.543 36.4761 128.936 34.2832 126.025C33.5259 125.019 32.8257 123.924 32.5195 122.671C32.9985 122.221 37.3491 125.974 37.9409 126.478C38.6235 127.059 39.3076 127.836 39.9873 128.425C43.5776 131.528 47.395 134.492 50.3892 138.208L50.3906 138.207Z" fill="white"/>
<path d="M59.1445 19.8361C59.0054 19.9736 57.1948 20.4592 56.7334 20.7371C55.9058 21.2376 55.6773 21.7889 55.4136 22.678C55.1953 23.4161 55.2012 25.1239 54.2666 25.1015C53.6338 25.0865 53.5064 22.9155 53.291 22.3672C52.938 21.4662 52.1997 20.9731 51.3691 20.5921C50.7319 20.3008 48.5083 19.9437 50.0464 18.9979C51.4512 18.1328 52.7124 18.466 53.3643 16.4056C53.5547 15.8049 53.5532 13.8087 54.4175 13.8849C54.8408 13.9223 55.0708 15.53 55.2598 16.0275C55.5703 16.8463 56.0435 17.7249 56.7993 18.1925C57.4014 18.5646 58.8442 18.7782 59.1812 19.0517C59.4038 19.2325 59.3232 19.6628 59.1445 19.8391V19.8361Z" fill="white"/>
<path d="M40.1587 26.6167C46.667 25.7681 47.1196 34.966 41.2559 36.1464C40.9277 36.0358 40.7974 34.8031 40.7417 34.4206C40.4561 32.4484 40.0049 29.0253 40.0166 27.1128C40.0166 26.941 40.0869 26.7691 40.1587 26.6167Z" fill="white"/>
<path d="M22.667 30.059C22.7944 30.0336 22.9219 30.0007 23.0508 30.044L26.0493 38.214C26.2529 39.4571 23.7729 39.2987 22.9922 39.0791C19.9248 38.2155 18.8291 34.0722 20.7407 31.5397C21.0996 31.0645 22.0986 30.174 22.6685 30.059H22.667Z" fill="white"/>
<path d="M117.186 86.064C116.912 87.5791 116.474 89.0986 116.326 90.6391C116.005 93.9785 116.544 97.161 117.048 100.457C117.004 100.651 115.642 100.835 115.354 100.853C114.986 100.877 113.966 100.99 113.842 100.606C113.673 100.088 113.55 98.4295 113.518 97.799C113.35 94.5492 113.771 91.1142 114.801 88.0378C114.889 87.7733 115.167 86.9187 115.273 86.7633C115.421 86.5466 117.086 85.9624 117.186 86.064Z" fill="white"/>
<path d="M50.1343 45.6088C50.3701 45.3578 52.5615 44.3896 53.1606 43.9906C56.2808 41.9123 58.3843 38.5774 60.1963 35.3291C62.2632 34.5103 61.4707 36.1539 60.9067 37.2491C58.9248 41.1099 55.4121 44.7915 51.561 46.695C51.4746 47.0716 53.4609 48.606 53.8594 48.8302C54.5918 49.2411 56.6645 49.7954 57.063 50.1943C57.5581 50.6874 57.3267 51.6018 56.4902 51.542C55.3271 51.4599 52.7226 50.2063 51.7851 49.4532C51.0044 48.8257 49.2114 46.586 50.1343 45.6088Z" fill="white"/>
<path d="M81.8833 85.9131C81.9478 86.191 81.7925 86.203 81.6401 86.336C80.1416 87.6523 77.0347 88.746 75.0703 88.8984C71.3423 89.1883 66.9639 87.7614 65.7715 83.8198C70.6494 86.5481 76.4736 86.5586 81.8818 85.9116L81.8833 85.9131Z" fill="white"/>
<path d="M19.355 89.517C21.3765 90.004 23.2178 90.6346 25.0474 89.2002C25.2524 89.4647 23.5488 93.4271 23.2207 93.9844C22.3213 95.5129 21.6416 95.7684 19.8911 95.2828C16.2026 94.2594 18.6064 91.8956 19.355 89.517Z" fill="white"/>
<path d="M18.1626 88.453C17.2778 88.326 16.2451 86.8647 16.1279 85.9757C15.6709 82.5168 19.6523 83.7375 21.4863 84.5428C22.6523 85.0538 25.103 86.1012 24.0249 87.7821C23.4375 88.6981 22.6377 88.6891 21.6738 88.5367C20.5034 88.3514 18.3999 86.6436 18.1641 88.4545L18.1626 88.453Z" fill="white"/>
<path d="M25.8853 28.8683C27.7866 28.426 28.0606 30.7643 28.5674 32.1957C28.9028 33.1415 29.8213 35.5261 29.8872 36.3838C30.0073 37.9646 28.2656 38.743 27.4702 37.6478C27.0586 37.0815 26.2837 34.5863 26.0083 33.7601C25.6245 32.6066 24.0234 29.3016 25.8867 28.8668L25.8853 28.8683Z" fill="white"/>
<path d="M38.187 27.0919C38.4932 27.3818 38.584 28.0631 38.6543 28.483C38.8872 29.8845 39.4102 33.9455 39.2622 35.1916C39.063 36.8636 36.6885 37.0534 36.3677 34.8495C36.0469 32.6456 36.085 30.2162 35.8872 28.0123C35.9634 26.8618 37.3755 26.3224 38.1885 27.0919H38.187Z" fill="white"/>
<path d="M56.8286 108.783C57.0776 109.173 56.1431 109.603 55.8867 109.824C52.1484 113.039 48.9375 116.773 45.6372 120.435C45.2549 120.83 44.5605 120.34 44.5239 119.897C44.4902 119.496 45.4643 118.412 45.7734 118.036C47.9018 115.442 50.7187 112.472 53.1709 110.192C53.5181 109.869 55.0605 108.421 55.3359 108.352C55.8091 108.234 56.3306 108.742 56.8286 108.783Z" fill="white"/>
<path d="M24.1597 80.1009C23.729 81.5114 23.8945 82.7097 24.1699 84.1202C23.0142 83.648 21.9082 83.0563 20.7334 82.6216C19.9014 82.3123 17.9941 82.118 17.6133 81.3217C17.0259 80.0965 17.8638 78.8787 19.1162 78.7428C20.8564 78.553 22.5923 79.4644 24.1597 80.1009Z" fill="white"/>
<path d="M21.0557 74.1453C22.9365 73.8196 25.4722 74.7444 27.0967 75.6783C26.3686 76.1788 25.6875 78.0301 25.1308 78.4529C24.9477 78.5919 24.7954 78.6397 24.5713 78.568C23.8154 77.8821 20.1284 77.3024 19.7051 76.7959C18.9492 75.8904 19.935 74.3395 21.0542 74.1453H21.0557Z" fill="white"/>
<path d="M30.728 74.2229L28.5029 74.707C27.1597 73.7612 25.5747 73.4698 24.0791 72.9275C23.9282 72.8722 23.8125 72.9977 23.8931 72.7063C24.0659 72.0788 24.895 69.9691 25.5542 69.9467C26.7524 69.9063 30.2461 71.3093 30.9902 72.3059C31.4487 72.92 30.9053 73.5714 30.728 74.2229Z" fill="white"/>
<path d="M135.595 86.4136C136.314 87.1562 135.955 88.5726 134.955 88.8699C132.85 88.7175 130.799 88.9237 128.695 89.0418C127.525 88.7893 127.537 87.4924 128.474 86.8917C129.353 86.3299 133.755 85.7502 134.776 85.9773C134.991 86.0251 135.441 86.2552 135.595 86.4136Z" fill="white"/>
<path d="M99.6094 120.726C98.3159 120.64 96.8687 119.444 96.4614 118.185C95.8696 116.35 96.7778 115.368 97.2686 113.782C97.7197 112.32 98.0654 110.85 98.291 109.334C100.6 108.2 99.2476 112.573 98.9165 113.67C98.5269 114.964 97.2949 116.864 98.1445 118.113C98.8081 119.09 100.003 119.161 99.6094 120.728V120.726Z" fill="white"/>
<path d="M134.711 21.8547C135.866 21.7277 139.646 23.821 141.067 23.9778C141.448 24.311 141.019 25.735 140.678 25.8321L134.043 23.673C133.45 23.3234 134.12 21.9204 134.713 21.8547H134.711Z" fill="white"/>
<path d="M53.4653 65.5944C53.6294 69.7869 55.2202 74.0183 57.6899 77.3488L57.7075 77.688C57.2593 77.7642 56.5342 78.3454 56.105 78.0735C54.854 76.2147 53.9282 74.1259 53.5093 71.8997C53.2017 70.2651 52.9702 67.4382 53.1724 65.8155C53.2002 65.5974 53.2837 65.3523 53.4653 65.5944Z" fill="white"/>
<path d="M20.2105 96.826C20.3628 97.0083 19.1528 101.161 17.502 99.6634C16.5278 98.7804 17.8023 97.231 18.0308 96.2344L20.2105 96.826Z" fill="white"/>
<path d="M128.905 98.6147C128.972 99.0196 128.832 98.8717 128.585 98.9538C128.339 99.036 127.097 99.3049 127.002 99.2108C126.895 98.2112 128.292 98.7327 128.905 98.6147Z" fill="white"/>
<path d="M92.6836 28.2631C94.3887 27.9927 93.4805 32.5125 92.2339 32.3914C90.6563 32.239 91.6524 28.426 92.6836 28.2631Z" fill="white"/>
<path d="M107.814 34.0664L108.813 34.7731C108.913 35.0884 108.771 35.7324 108.447 35.84C108.193 35.949 107.446 35.7533 107.41 35.4918L107.815 34.0664H107.814Z" fill="white"/>
<path d="M81.1524 26.5955V29.0608L80.8535 29.2237L79.8325 29.0593C79.834 28.8412 80.6485 27.0661 80.8242 26.7882C80.918 26.6403 80.8081 26.5237 81.1524 26.5955Z" fill="white"/>
<path d="M67.3389 25.8651C67.5952 25.7979 67.8281 25.9727 67.9102 26.2162C67.7798 26.9737 67.0854 30.086 66.0088 29.723C65.3393 29.4974 66.271 27.1172 66.5259 26.6928C66.6328 26.515 67.1807 25.9069 67.3389 25.8666V25.8651Z" fill="white"/>
<path d="M122.9 114.227C122.667 113.09 121.783 114.117 121.503 114.157C121.04 114.223 120.457 113.831 119.971 113.852C120.319 112.141 121.047 110.498 122.388 109.373C123.416 111.046 125.405 111.608 127.005 110.344C127.775 109.736 127.846 109.231 128.161 108.381C128.216 108.228 128.083 108.113 128.377 108.188C129.992 108.923 131.042 110.498 131.685 112.123C131.662 112.233 130.276 112.872 130.088 112.887C129.776 112.914 129.334 112.189 128.899 112.754L129.768 118.465L122.899 119.527C122.685 118.009 123.187 115.63 122.899 114.223L122.9 114.227Z" fill="white"/>
<path d="M123.813 108.361C124.176 108.016 126.136 107.741 126.614 107.899C127.2 108.094 126.649 108.987 126.346 109.225C125.18 110.138 123.11 109.026 123.813 108.361Z" fill="white"/>
<path d="M133.644 30.0829C135.315 28.3048 138.458 31.0869 136.305 33.0218C134.667 34.4936 131.832 32.0073 133.644 30.0829Z" fill="white"/>
<path d="M72.8027 73.361C74.5913 70.8882 78.3618 70.1143 80.8564 71.9431C78.5991 73.6748 75.5229 74.3412 72.8027 73.361Z" fill="white"/>
</g>
<defs>
<clipPath id="clip0_196_40">
<rect width="150" height="153" rx="12" fill="white"/>
</clipPath>
</defs>
</svg>
