<svg width="132" height="110" viewBox="0 0 132 110" fill="none" xmlns="http://www.w3.org/2000/svg">
<path d="M108.749 69.5172C115.882 72.4056 122.496 77.5005 126.516 83.6662C127.805 85.6459 130.99 91.3209 131.371 93.3993C132.008 96.8694 130.992 97.4311 129.707 100.273C129.044 101.741 128.677 103.239 127.728 104.626C126.146 106.936 123.005 108.176 120.263 106.695C118.525 109.093 114.29 109.702 112.193 107.325C109.841 109.533 106.017 109.013 103.94 106.727C98.1527 109.73 94.7559 104.786 94.9843 99.8396C95.2193 94.717 97.7849 89.3675 102.703 86.7229C99.7814 85.1722 96.7204 83.8421 93.5402 82.7867C93.0281 82.7574 91.9586 84.1399 91.4599 84.5658C78.84 95.3465 53.7412 96.3047 40.3338 86.334C39.7041 85.8665 37.5448 83.7681 37.2174 83.6323C36.9891 83.5366 36.9336 83.5752 36.7187 83.6246C35.9766 83.7943 31.8141 85.7246 31.2617 86.1828C31.1308 86.2908 30.9679 86.3819 31.0099 86.5686C34.4772 88.846 36.6113 92.6664 37.34 96.4945C37.654 98.1424 37.8219 99.6838 37.5146 101.341C36.7993 105.18 33.6376 107.849 29.2771 106.569C27.3562 109.107 22.9839 110.103 20.6836 107.473C18.0088 109.406 14.8908 108.963 12.7986 106.579C10.3506 108.124 7.45919 107.15 5.96481 104.964C5.50139 104.285 5.14038 103.083 4.5779 102.535C4.10608 102.075 3.07009 101.781 2.48241 101.375C-1.33916 98.7426 -0.182278 93.4533 2.16675 90.3041C4.80961 86.7599 6.94371 82.9333 10.1088 79.7039C13.2738 76.4744 17.3976 73.316 21.6121 71.2175V70.9907C16.8385 66.2816 15.606 59.4586 17.7452 53.3932C18.9608 49.9431 21.4744 46.5578 22.2065 42.9889C22.6716 40.7254 22.4533 38.6424 22.6128 36.4189C23.9309 18.1147 36.3896 4.26652 56.1708 0.90902C79.4998 -3.05024 100.49 5.90361 105.651 28.1702C106.18 30.4492 106.326 32.7451 106.79 34.9932C107.542 38.6408 109.211 39.1701 111.436 41.8332C118.846 50.7053 117.722 62.0554 108.756 69.5218L108.749 69.5172ZM66.0991 24.0011C65.6693 23.9394 65.8389 24.0366 65.7482 24.2187C65.3318 25.0642 65.0548 26.1412 64.6182 27.0377C59.1058 38.3492 47.1995 48.1008 33.1792 48.4479C33.0415 48.539 32.8854 49.5897 32.8569 49.8489C32.0089 57.4882 32.8938 70.6883 36.7976 77.5468C43.6684 89.6206 64.321 91.0802 77.0517 87.8384C88.9211 84.8157 95.5619 76.3124 96.6633 65.203C101.341 65.0595 105.039 59.2256 105.389 55.4006C105.561 53.5382 105.316 48.1579 102.162 48.5667C98.4012 49.0543 98.8713 55.1784 96.8027 57.2305C94.7341 59.2827 93.9533 56.672 93.8089 55.092C93.6292 53.1216 93.9818 51.0154 93.6158 49.0204C83.8503 46.0656 75.376 39.2919 69.8939 31.3966C68.3172 29.1269 66.8279 26.6211 66.1008 24.0027L66.0991 24.0011ZM3.80552 98.5266C3.05162 96.9311 5.29318 95.8912 6.1663 97.5159C7.12169 99.295 7.38698 104.094 10.0164 104.482C10.7703 104.594 11.7089 104.118 11.8584 103.379C12.0783 102.285 11.1699 99.0898 10.7367 97.9449C10.4295 97.1302 9.24572 95.1969 9.22221 94.5658C9.17688 93.3237 10.7552 93.2141 11.6804 93.9902C14.2023 96.1087 14.4206 100.839 14.9059 103.679C15.2837 105.891 17.7569 106.957 18.9508 104.806C19.7785 103.316 19.1439 100.27 18.6653 98.6809C18.1398 96.9404 17.1256 95.5178 16.5614 93.8174C17.3708 91.4875 19.1472 92.813 20.1261 94.2525C22.3223 97.4835 22.3459 101.591 22.5708 105.276C24.5001 107.289 26.7551 105.956 26.9851 103.544C27.3193 100.029 25.6838 96.7414 24.1374 93.6477C23.9107 92.347 25.1516 91.9798 26.2228 92.6602C28.2797 93.9671 29.7455 98.7333 29.9789 100.935C30.1468 102.512 29.3123 104.658 32.1533 103.972C34.8449 103.321 34.8063 99.5388 34.5074 97.5452C33.8072 92.9025 31.1224 88.8012 26.0449 87.4234C20.0841 85.8063 8.54387 87.1919 4.48387 91.969C3.10367 93.5937 2.16339 96.8509 3.8072 98.5235L3.80552 98.5266ZM110.041 105.576C110.949 104.831 110.306 103.564 110.262 102.614C110.156 100.347 111.221 94.6337 113.279 93.2002C114.255 92.5213 115.768 92.921 115.785 93.9702C115.791 94.3868 114.492 96.8617 114.247 97.6363C113.602 99.6653 112.507 105.004 115.373 105.939C116.537 106.319 117.422 105.866 117.954 104.901C118.605 103.717 118.058 102.423 118.155 101.074C118.275 99.4138 119.482 95.0858 120.921 94.0489C121.556 93.5922 122.676 93.586 122.949 94.3513C123.238 95.1567 121.812 97.9865 121.561 99.1114C121.21 100.684 120.424 105.856 123.871 104.32C125.597 103.552 127.263 98.8275 127.77 97.1024C129.357 91.7205 124.682 88.6547 119.633 87.5206C112.126 85.8341 102.198 87.3246 99.1467 94.7154C98.1543 97.1178 97.2392 101.588 98.8713 103.822C99.7243 104.992 101.971 105.402 102.624 104.074C102.711 103.898 102.501 101.342 102.538 100.764C102.678 98.542 103.529 95.2802 105.084 93.5366C105.703 92.8423 106.985 91.9396 107.754 93.0351C108.395 93.9486 106.941 95.9035 106.563 96.9018C105.717 99.1391 104.372 104.74 107.505 105.914C108.204 106.177 109.485 106.03 110.041 105.573V105.576Z" fill="#0D2D84"/>
<path d="M66.0991 24.0011C66.8262 26.6195 68.3172 29.1253 69.8922 31.395C75.3743 39.2904 83.8486 46.064 93.6141 49.0188C93.9818 51.0138 93.6275 53.12 93.8072 55.0904C93.9516 56.6719 94.8281 59.187 96.801 57.2289C98.7739 55.2709 98.3995 49.0527 102.161 48.5651C105.314 48.1563 105.559 53.5366 105.388 55.399C105.035 59.2224 101.338 65.0564 96.6616 65.2014C95.5602 76.3108 88.9194 84.8141 77.0501 87.8368C64.3193 91.0801 43.6684 89.619 36.7959 77.5452C32.8938 70.6867 32.0072 57.4866 32.8552 49.8474C32.8837 49.5881 33.0399 48.5374 33.1775 48.4463C47.1978 48.0992 59.1041 38.3476 64.6165 27.0361C65.0531 26.1396 65.3301 25.0626 65.7465 24.2171C65.8355 24.035 65.6659 23.9378 66.0975 23.9995L66.0991 24.0011ZM50.116 49.8149C48.076 49.9338 41.7509 51.4798 41.7459 53.8575C41.7425 55.2956 43.4619 55.1907 44.5348 54.8682C46.7579 54.2001 47.992 53.498 50.5627 53.4641C52.0453 53.444 55.432 54.2849 55.5361 52.0029C55.6335 49.8612 51.738 49.7208 50.116 49.8149ZM71.6988 50.7469C70.688 51.7066 71.2707 53.2604 72.6374 53.5597C74.8438 54.0427 77.3556 53.3298 79.9968 54.0489C81.0731 54.342 84.4212 56.2013 84.8745 54.2849C85.3279 52.3686 81.602 50.8997 80.0388 50.4615C78.1498 49.9322 73.1496 49.369 71.6988 50.7469ZM48.9289 59.8335C43.8514 60.7808 43.8094 72.6941 49.394 73.2218C56.7551 73.9192 56.3975 58.4386 48.9289 59.8335ZM75.9637 59.835C70.4983 60.6883 70.5151 73.3468 76.7629 73.3452C83.4406 73.3437 83.3483 58.6824 75.9637 59.835ZM59.3342 67.6841C58.6491 67.8507 57.6803 69.5434 57.4872 70.1667C57.0943 71.4366 57.2403 72.4117 57.2941 73.6924C53.9342 74.9422 50.5711 77.1224 49.5989 80.5077C49.1036 82.2327 48.9205 82.6278 50.8834 83.1169C55.3262 84.2232 60.3097 83.4332 64.002 80.932C67.4793 83.5057 73.1899 84.2494 77.4245 83.0891C79.2648 82.5846 79.0482 82.1047 78.573 80.5093C77.4631 76.7814 73.294 74.271 69.4187 73.3375C69.0056 73.2372 68.4398 73.0336 68.0301 73.0567C67.3215 73.0953 67.4155 73.5289 67.0243 73.8405C65.1068 75.3712 63.0147 76.1365 60.8168 74.4546C58.6189 72.7728 58.733 70.2948 60.0528 68.2056C60.0108 67.8893 59.6834 67.6023 59.3358 67.6872L59.3342 67.6841Z" fill="#F5F0E3"/>
<path d="M3.80551 98.5263C2.16169 96.8537 3.10198 93.5965 4.48217 91.9718C8.54217 87.1947 20.0824 85.8076 26.0432 87.4262C31.1207 88.804 33.8055 92.9053 34.5057 97.5481C34.8062 99.5416 34.8432 103.323 32.1516 103.975C29.3106 104.661 30.1451 102.515 29.9772 100.938C29.7438 98.7377 28.278 93.9699 26.2211 92.663C25.1482 91.981 23.9091 92.3498 24.1357 93.6505C25.6822 96.7442 27.3176 100.032 26.9834 103.547C26.7551 105.959 24.4984 107.292 22.5692 105.278C22.3442 101.594 22.3207 97.4863 20.1244 94.2554C19.1455 92.8158 17.3674 91.4904 16.5597 93.8202C17.1256 95.5206 18.1381 96.9432 18.6636 98.6837C19.1438 100.271 19.7785 103.317 18.9491 104.809C17.7536 106.96 15.282 105.896 14.9042 103.681C14.4189 100.841 14.2023 96.1116 11.6787 93.9931C10.7535 93.2154 9.17518 93.3249 9.22052 94.5686C9.24403 95.1997 10.4278 97.133 10.735 97.9477C11.1666 99.0941 12.0766 102.288 11.8567 103.382C11.7072 104.121 10.7703 104.598 10.0147 104.485C7.38529 104.096 7.12 99.2978 6.1646 97.5187C5.29149 95.894 3.04992 96.934 3.80383 98.5294L3.80551 98.5263Z" fill="#F5F0E3"/>
<path d="M110.041 105.576C109.485 106.033 108.204 106.178 107.505 105.917C104.372 104.743 105.717 99.1406 106.563 96.9049C106.941 95.9066 108.393 93.9532 107.754 93.0382C106.985 91.9427 105.705 92.8438 105.084 93.5397C103.529 95.2817 102.678 98.5451 102.538 100.767C102.501 101.346 102.711 103.901 102.624 104.077C101.969 105.405 99.7243 104.995 98.8713 103.825C97.2409 101.591 98.156 97.1209 99.1467 94.7185C102.198 87.3277 112.126 85.8372 119.633 87.5236C124.682 88.6577 129.357 91.7236 127.77 97.1055C127.261 98.8305 125.597 103.554 123.871 104.323C120.424 105.859 121.21 100.687 121.561 99.1144C121.812 97.9881 123.236 95.1598 122.949 94.3544C122.662 93.5489 121.556 93.5937 120.921 94.0519C119.482 95.0888 118.276 99.4168 118.155 101.077C118.058 102.426 118.607 103.72 117.954 104.904C117.422 105.87 116.537 106.322 115.373 105.942C112.507 105.007 113.602 99.6699 114.247 97.6393C114.492 96.8648 115.791 94.3898 115.785 93.9732C115.768 92.9225 114.255 92.5244 113.279 93.2033C111.221 94.6367 110.156 100.35 110.262 102.617C110.307 103.567 110.951 104.833 110.041 105.579V105.576Z" fill="#F5F0E3"/>
<path d="M59.3342 67.684C59.6834 67.5992 60.0091 67.8862 60.0511 68.2025C58.733 70.2916 58.6575 72.799 60.8151 74.4515C62.9727 76.104 65.1051 75.368 67.0226 73.8374C67.4139 73.5257 67.3198 73.0921 68.0284 73.0536C68.4398 73.0304 69.0039 73.2356 69.417 73.3344C73.2923 74.2679 77.4614 76.7798 78.5713 80.5061C79.0465 82.1015 79.2631 82.5814 77.4228 83.086C73.1882 84.2463 67.4777 83.5026 64.0003 80.9289C60.3097 83.4316 55.3245 84.2216 50.8817 83.1137C48.9189 82.6246 49.1019 82.2312 49.5972 80.5046C50.5694 77.1177 53.9326 74.9375 57.2924 73.6893C57.237 72.4101 57.0909 71.4334 57.4855 70.1636C57.6786 69.5402 58.6474 67.8476 59.3325 67.6809L59.3342 67.684Z" fill="#0D2D84"/>
<path d="M75.9637 59.8351C83.3482 58.6825 83.4423 73.3422 76.7629 73.3453C70.5134 73.3469 70.4983 60.6883 75.9637 59.8351Z" fill="#0D2D84"/>
<path d="M48.9289 59.8336C56.3975 58.4387 56.7551 73.9194 49.394 73.2219C43.8094 72.6927 43.8514 60.781 48.9289 59.8336Z" fill="#0D2D84"/>
<path d="M50.1161 49.8155C51.738 49.7213 55.6335 49.8602 55.5361 52.0034C55.432 54.287 52.0453 53.4461 50.5627 53.4646C47.992 53.4985 46.7579 54.2006 44.5348 54.8687C43.4636 55.1912 41.7425 55.2961 41.7459 53.858C41.7526 51.4803 48.076 49.9343 50.1161 49.8155Z" fill="#0D2D84"/>
<path d="M71.6989 50.7473C73.1513 49.3695 78.1515 49.9326 80.0388 50.4619C81.6004 50.9001 85.3178 52.406 84.8745 54.2854C84.4313 56.1647 81.0731 54.344 79.9968 54.0493C77.3573 53.3287 74.8438 54.0416 72.6375 53.5602C71.269 53.2608 70.6881 51.7055 71.6989 50.7473Z" fill="#0D2D84"/>
</svg>
