<svg width="136" height="35" viewBox="0 0 136 35" fill="none" xmlns="http://www.w3.org/2000/svg">
<path d="M33.5 27.5H37.5V7.5H33.5V1H47.5V7.5H44V27.5H55.5V24H61.8364V34H33.5V27.5Z" fill="white"/>
<path d="M88.5 27.5V20.5H80.5V14.312H95.5V30.5L92 34H69.5L66 30.5V4.5L69.5 1H92L95.5 4.5V10.5H88.5V7.5H72.5V27.5H88.5Z" fill="white"/>
<path d="M109 23.5L108 27.5H110.5V34H99V27.5H101.5L107.5 7.5H104.261V1H124.5L132.5 27.5H135V34H123.5V27.5H126L124.5 23.5H109Z" fill="white"/>
<path fill-rule="evenodd" clip-rule="evenodd" d="M26 34L29.5 30.5V4.5L26 1H4L0 4.5V30.5L3.5 34H26ZM23 7.5V27.5H6.5V7.5H23Z" fill="white"/>
<path d="M33.5 27.5H37.5V7.5H33.5V1H47.5V7.5H44V27.5H55.5V24H61.8364V34H33.5V27.5Z" stroke="white"/>
<path d="M88.5 27.5V20.5H80.5V14.312H95.5V30.5L92 34H69.5L66 30.5V4.5L69.5 1H92L95.5 4.5V10.5H88.5V7.5H72.5V27.5H88.5Z" stroke="white"/>
<path d="M109 23.5L108 27.5H110.5V34H99V27.5H101.5L107.5 7.5H104.261V1H124.5L132.5 27.5H135V34H123.5V27.5H126L124.5 23.5H109Z" stroke="white"/>
<path fill-rule="evenodd" clip-rule="evenodd" d="M26 34L29.5 30.5V4.5L26 1H4L0 4.5V30.5L3.5 34H26ZM23 7.5V27.5H6.5V7.5H23Z" stroke="white"/>
<path d="M120 7.5L123 17.5H111L114 7.5H120Z" fill="#0D2D84" stroke="white"/>
</svg>
