<svg width="137" height="35" viewBox="0 0 137 35" fill="none" xmlns="http://www.w3.org/2000/svg">
<path d="M34.5 27.5H38.5V7.5H34.5V1H48.5V7.5H45V27.5H56.5V24H62.8364V34H34.5V27.5Z" fill="#0D2D84"/>
<path d="M89.5 27.5V20.5H81.5V14.312H96.5V30.5L93 34H70.5L67 30.5V4.5L70.5 1H93L96.5 4.5V10.5H89.5V7.5H73.5V27.5H89.5Z" fill="#0D2D84"/>
<path d="M110 23.5L109 27.5H111.5V34H100V27.5H102.5L108.5 7.5H105.261V1H125.5L133.5 27.5H136V34H124.5V27.5H127L125.5 23.5H110Z" fill="#0D2D84"/>
<path fill-rule="evenodd" clip-rule="evenodd" d="M27 34L30.5 30.5V4.5L27 1H5L1 4.5V30.5L4.5 34H27ZM24 7.5V27.5H7.5V7.5H24Z" fill="#0D2D84"/>
<path d="M34.5 27.5H38.5V7.5H34.5V1H48.5V7.5H45V27.5H56.5V24H62.8364V34H34.5V27.5Z" stroke="#0D2D84"/>
<path d="M89.5 27.5V20.5H81.5V14.312H96.5V30.5L93 34H70.5L67 30.5V4.5L70.5 1H93L96.5 4.5V10.5H89.5V7.5H73.5V27.5H89.5Z" stroke="#0D2D84"/>
<path d="M110 23.5L109 27.5H111.5V34H100V27.5H102.5L108.5 7.5H105.261V1H125.5L133.5 27.5H136V34H124.5V27.5H127L125.5 23.5H110Z" stroke="#0D2D84"/>
<path fill-rule="evenodd" clip-rule="evenodd" d="M27 34L30.5 30.5V4.5L27 1H5L1 4.5V30.5L4.5 34H27ZM24 7.5V27.5H7.5V7.5H24Z" stroke="#0D2D84"/>
<path d="M121 7.5L124 17.5H112L115 7.5H121Z" fill="#F5F0E3" stroke="#0D2D84"/>
</svg>
